<svg xmlns="http://www.w3.org/2000/svg" width="88" height="88" viewBox="0 0 88 88" fill="none">
  <rect width="88" height="88" rx="8" fill="#F5F5F5"/>
  <path d="M34 36C34 32.6863 36.6863 30 40 30H48C51.3137 30 54 32.6863 54 36V44C54 44.5523 53.5523 45 53 45H35C34.4477 45 34 44.5523 34 44V36Z" fill="#E0E0E0"/>
  <path d="M34 52C34 51.4477 34.4477 51 35 51H53C53.5523 51 54 51.4477 54 52C54 55.3137 51.3137 58 48 58H40C36.6863 58 34 55.3137 34 52Z" fill="#E0E0E0"/>
  <circle cx="44" cy="44" r="5" fill="#BDBDBD"/>
</svg>